<svg width="128" xmlns="http://www.w3.org/2000/svg" height="128" id="screenshot-d431f335-1a4e-8051-8004-dcdb4282469d" viewBox="0 0 128 128" xmlns:xlink="http://www.w3.org/1999/xlink" fill="none" version="1.1"><g id="shape-d431f335-1a4e-8051-8004-dcdb4282469d" data-testid="map-pinned" width="24" class="lucide lucide-map-pinned" height="24" rx="0" ry="0" style="fill: rgb(0, 0, 0);"><g id="shape-d431f335-1a4e-8051-8004-dcdb4282c678" data-testid="base-background" style="display: none;"><g class="fills" id="fills-d431f335-1a4e-8051-8004-dcdb4282c678"><rect width="128" height="128" x="0" stroke-linejoin="round" transform="matrix(1.000000, 0.000000, 0.000000, 1.000000, 0.000000, 0.000000)" style="fill: none;" ry="0" fill="none" rx="0" y="0"/></g><g fill="none" stroke-linejoin="round" id="strokes-d431f335-1a4e-8051-8004-dcdb4282c678" class="strokes"><g class="stroke-shape"><rect rx="0" ry="0" x="0" y="0" transform="matrix(1.000000, 0.000000, 0.000000, 1.000000, 0.000000, 0.000000)" width="128" height="128" style="fill: none; stroke-width: 3; stroke: rgb(232, 142, 0); stroke-opacity: 1;"/></g></g></g><g id="shape-d431f335-1a4e-8051-8004-dcdb428322c0" data-testid="svg-path"><g class="fills" id="fills-d431f335-1a4e-8051-8004-dcdb428322c0"><path d="M96.000,42.667C96.000,61.936,75.365,82.288,67.237,89.573C65.326,91.033,62.674,91.033,60.763,89.573C52.640,82.288,32.000,61.936,32.000,42.667C32.000,24.994,46.327,10.667,64.000,10.667C81.673,10.667,96.000,24.994,96.000,42.667Z" fill="none" stroke-linejoin="round" style="fill: none;"/></g><g fill="none" stroke-linejoin="round" id="strokes-d431f335-1a4e-8051-8004-dcdb428322c0" class="strokes"><g class="stroke-shape"><path d="M96.000,42.667C96.000,61.936,75.365,82.288,67.237,89.573C65.326,91.033,62.674,91.033,60.763,89.573C52.640,82.288,32.000,61.936,32.000,42.667C32.000,24.994,46.327,10.667,64.000,10.667C81.673,10.667,96.000,24.994,96.000,42.667Z" style="fill: none; stroke-width: 3; stroke: rgb(232, 142, 0); stroke-opacity: 1;"/></g></g></g><g id="shape-d431f335-1a4e-8051-8004-dcdb428322c1" data-testid="svg-circle"><g class="fills" id="fills-d431f335-1a4e-8051-8004-dcdb428322c1"><ellipse cx="64.00000000000011" cy="42.66666666666697" rx="10.666666666666629" ry="10.66666666666697" transform="matrix(1.000000, 0.000000, 0.000000, 1.000000, 0.000000, 0.000000)" fill="none" stroke-linejoin="round" style="fill: none;"/></g><g fill="none" stroke-linejoin="round" id="strokes-d431f335-1a4e-8051-8004-dcdb428322c1" class="strokes"><g class="stroke-shape"><ellipse cx="64.00000000000011" cy="42.66666666666697" rx="10.666666666666629" ry="10.66666666666697" transform="matrix(1.000000, 0.000000, 0.000000, 1.000000, 0.000000, 0.000000)" style="fill: none; stroke-width: 3; stroke: rgb(232, 142, 0); stroke-opacity: 1;"/></g></g></g><g id="shape-d431f335-1a4e-8051-8004-dcdb428366d8" data-testid="svg-path"><g class="fills" id="fills-d431f335-1a4e-8051-8004-dcdb428366d8"><path d="M46.475,74.667L26.688,74.667C24.395,74.668,22.359,76.134,21.632,78.309L10.944,110.309C10.400,111.936,10.672,113.724,11.674,115.116C12.675,116.507,14.285,117.333,16.000,117.333L112.000,117.333C113.713,117.332,115.322,116.508,116.323,115.117C117.325,113.727,117.597,111.940,117.056,110.315L106.389,78.315C105.664,76.136,103.625,74.666,101.328,74.667L81.531,74.667" fill="none" stroke-linejoin="round" style="fill: none;"/></g><g fill="none" stroke-linejoin="round" id="strokes-d431f335-1a4e-8051-8004-dcdb428366d8" class="strokes"><g class="stroke-shape"><path d="M46.475,74.667L26.688,74.667C24.395,74.668,22.359,76.134,21.632,78.309L10.944,110.309C10.400,111.936,10.672,113.724,11.674,115.116C12.675,116.507,14.285,117.333,16.000,117.333L112.000,117.333C113.713,117.332,115.322,116.508,116.323,115.117C117.325,113.727,117.597,111.940,117.056,110.315L106.389,78.315C105.664,76.136,103.625,74.666,101.328,74.667L81.531,74.667" style="fill: none; stroke-width: 3; stroke: rgb(232, 142, 0); stroke-opacity: 1;"/></g></g></g></g></svg>